<svg width="30" height="30" viewBox="0 0 30 30" fill="none" xmlns="http://www.w3.org/2000/svg">
<g clip-path="url(#clip0_2073_2239)">
<path d="M28.7053 10.8637L19.852 2.01039C17.1664 -0.668257 12.8196 -0.668257 10.134 2.01039L1.28069 10.8637C0.457946 11.6821 -0.00320438 12.7955 1.6762e-05 13.956V26.9224C0.00276938 28.6149 1.37486 29.9858 3.06737 29.9873H26.9186C28.6112 29.9859 29.9832 28.6149 29.9859 26.9224V13.956C29.9892 12.7955 29.5281 11.6821 28.7053 10.8637ZM26.2377 26.239H19.9907V22.2634C19.9907 19.6288 17.8549 17.4931 15.2204 17.4931H14.7656C12.1311 17.4931 9.99534 19.6288 9.99534 22.2634V26.239H3.74826V13.956C3.74867 13.7903 3.81414 13.6315 3.93069 13.5137L12.784 4.66039C14.0037 3.4404 15.9814 3.44017 17.2014 4.65981C17.2016 4.65998 17.2018 4.66022 17.202 4.66039L26.0553 13.5137C26.1718 13.6315 26.2373 13.7903 26.2378 13.956V26.239H26.2377Z" fill="#333333"/>
</g>
<defs>
<clipPath id="clip0_2073_2239">
<rect width="29.986" height="29.986" fill="white"/>
</clipPath>
</defs>
</svg>
